<svg xmlns="http://www.w3.org/2000/svg" width="448" height="144" viewBox="0 0 448 144">
    <rect width="153" height="144" x="0" y="0" fill="#050505" />
    <!-- QR placeholder resized to new black width (inner 143x134 area with margin) -->
  <a href="https://tiger.com/tickr" target="_blank">
    <g id="qr" transform="translate(5,5)">
      <!-- White background to simulate quiet zone -->
      <rect x="0" y="0" width="143" height="134" fill="#ffffff" />
      <!-- Finder patterns (top-left, top-right, bottom-left) -->
      <g fill="#000">
        <rect x="4" y="4" width="30" height="30" />
        <rect x="8" y="8" width="22" height="22" fill="#fff" />
        <rect x="12" y="12" width="14" height="14" fill="#000" />

  <rect x="109" y="4" width="30" height="30" />
  <rect x="113" y="8" width="22" height="22" fill="#fff" />
  <rect x="117" y="12" width="14" height="14" fill="#000" />

        <rect x="4" y="100" width="30" height="30" />
        <rect x="8" y="104" width="22" height="22" fill="#fff" />
        <rect x="12" y="108" width="14" height="14" fill="#000" />
      </g>
      <!-- Data modules (stylized, not a real encoding) -->
      <g fill="#000">
        <rect x="48" y="12" width="8" height="8" />
        <rect x="62" y="12" width="8" height="8" />
        <rect x="76" y="12" width="8" height="8" />
        <rect x="90" y="12" width="8" height="8" />
        <rect x="104" y="12" width="8" height="8" />

        <rect x="48" y="28" width="8" height="8" />
        <rect x="62" y="28" width="8" height="8" />
        <rect x="76" y="28" width="8" height="8" />
        <rect x="90" y="28" width="8" height="8" />
        <rect x="104" y="28" width="8" height="8" />

        <rect x="48" y="44" width="8" height="8" />
        <rect x="62" y="44" width="8" height="8" />
        <rect x="76" y="44" width="8" height="8" />
        <rect x="90" y="44" width="8" height="8" />
        <rect x="104" y="44" width="8" height="8" />

        <rect x="48" y="60" width="8" height="8" />
        <rect x="62" y="60" width="8" height="8" />
        <rect x="76" y="60" width="8" height="8" />
        <rect x="90" y="60" width="8" height="8" />
        <rect x="104" y="60" width="8" height="8" />

        <rect x="48" y="76" width="8" height="8" />
        <rect x="62" y="76" width="8" height="8" />
        <rect x="76" y="76" width="8" height="8" />
        <rect x="90" y="76" width="8" height="8" />
        <rect x="104" y="76" width="8" height="8" />

        <rect x="48" y="92" width="8" height="8" />
        <rect x="62" y="92" width="8" height="8" />
        <rect x="76" y="92" width="8" height="8" />
        <rect x="90" y="92" width="8" height="8" />
        <rect x="104" y="92" width="8" height="8" />
      </g>
      <!-- Extra scattered modules -->
      <g fill="#000">
  <rect x="103" y="64" width="6" height="6" />
  <rect x="115" y="70" width="6" height="6" />
  <rect x="103" y="82" width="6" height="6" />
  <rect x="121" y="88" width="6" height="6" />
        <rect x="52" y="108" width="6" height="6" />
        <rect x="64" y="108" width="6" height="6" />
        <rect x="76" y="108" width="6" height="6" />
        <rect x="88" y="108" width="6" height="6" />
        <rect x="100" y="108" width="6" height="6" />
        <rect x="112" y="108" width="6" height="6" />
      </g>
    </g>
  </a>
  <rect x="153" y="0" width="265" height="144" fill="#ffffff" stroke="#000000" stroke-width="1" />
  <text x="285.5" y="78" text-anchor="middle" font-family="system-ui,Arial" font-size="44" fill="#111" font-weight="600" letter-spacing="6">4 8 1 9 2 7</text>
  <text x="285.5" y="118" text-anchor="middle" font-family="system-ui,Arial" font-size="20" fill="#222">tiger.com/tickr</text>
  <!-- Blue pulsing LED -->
  <rect x="418" y="0" width="30" height="144" fill="#000000">
    <animate attributeName="fill" values="#000000;#0a2d66;#1e6fff;#0a2d66;#000000" dur="6s" repeatCount="indefinite" keyTimes="0;0.25;0.5;0.75;1" />
  </rect>
  <text x="433" y="72" text-anchor="middle" font-family="system-ui,Arial" font-size="11" fill="#cfe4ff" writing-mode="tb" glyph-orientation-vertical="0" font-weight="600">LED</text>
</svg>
