<svg xmlns="http://www.w3.org/2000/svg" width="448" height="144" viewBox="0 0 448 144">
    <rect width="153" height="144" x="0" y="0" fill="#050505" />
    <a href="https://tiger.com/tickr" target="_blank">
      <g id="qr" transform="translate(5,5)">
        <rect x="0" y="0" width="143" height="134" fill="#f0f0f0" />
        <g fill="#000" shape-rendering="crispEdges">
<rect x="22" y="17" width="4" height="4" />
<rect x="26" y="17" width="4" height="4" />
<rect x="30" y="17" width="4" height="4" />
<rect x="34" y="17" width="4" height="4" />
<rect x="38" y="17" width="4" height="4" />
<rect x="42" y="17" width="4" height="4" />
<rect x="46" y="17" width="4" height="4" />
<rect x="54" y="17" width="4" height="4" />
<rect x="62" y="17" width="4" height="4" />
<rect x="78" y="17" width="4" height="4" />
<rect x="82" y="17" width="4" height="4" />
<rect x="94" y="17" width="4" height="4" />
<rect x="98" y="17" width="4" height="4" />
<rect x="102" y="17" width="4" height="4" />
<rect x="106" y="17" width="4" height="4" />
<rect x="110" y="17" width="4" height="4" />
<rect x="114" y="17" width="4" height="4" />
<rect x="118" y="17" width="4" height="4" />
<rect x="22" y="21" width="4" height="4" />
<rect x="46" y="21" width="4" height="4" />
<rect x="58" y="21" width="4" height="4" />
<rect x="66" y="21" width="4" height="4" />
<rect x="86" y="21" width="4" height="4" />
<rect x="94" y="21" width="4" height="4" />
<rect x="118" y="21" width="4" height="4" />
<rect x="22" y="25" width="4" height="4" />
<rect x="30" y="25" width="4" height="4" />
<rect x="34" y="25" width="4" height="4" />
<rect x="38" y="25" width="4" height="4" />
<rect x="46" y="25" width="4" height="4" />
<rect x="58" y="25" width="4" height="4" />
<rect x="62" y="25" width="4" height="4" />
<rect x="70" y="25" width="4" height="4" />
<rect x="78" y="25" width="4" height="4" />
<rect x="82" y="25" width="4" height="4" />
<rect x="94" y="25" width="4" height="4" />
<rect x="102" y="25" width="4" height="4" />
<rect x="106" y="25" width="4" height="4" />
<rect x="110" y="25" width="4" height="4" />
<rect x="118" y="25" width="4" height="4" />
<rect x="22" y="29" width="4" height="4" />
<rect x="30" y="29" width="4" height="4" />
<rect x="34" y="29" width="4" height="4" />
<rect x="38" y="29" width="4" height="4" />
<rect x="46" y="29" width="4" height="4" />
<rect x="54" y="29" width="4" height="4" />
<rect x="62" y="29" width="4" height="4" />
<rect x="66" y="29" width="4" height="4" />
<rect x="70" y="29" width="4" height="4" />
<rect x="74" y="29" width="4" height="4" />
<rect x="78" y="29" width="4" height="4" />
<rect x="86" y="29" width="4" height="4" />
<rect x="94" y="29" width="4" height="4" />
<rect x="102" y="29" width="4" height="4" />
<rect x="106" y="29" width="4" height="4" />
<rect x="110" y="29" width="4" height="4" />
<rect x="118" y="29" width="4" height="4" />
<rect x="22" y="33" width="4" height="4" />
<rect x="30" y="33" width="4" height="4" />
<rect x="34" y="33" width="4" height="4" />
<rect x="38" y="33" width="4" height="4" />
<rect x="46" y="33" width="4" height="4" />
<rect x="54" y="33" width="4" height="4" />
<rect x="58" y="33" width="4" height="4" />
<rect x="74" y="33" width="4" height="4" />
<rect x="82" y="33" width="4" height="4" />
<rect x="86" y="33" width="4" height="4" />
<rect x="94" y="33" width="4" height="4" />
<rect x="102" y="33" width="4" height="4" />
<rect x="106" y="33" width="4" height="4" />
<rect x="110" y="33" width="4" height="4" />
<rect x="118" y="33" width="4" height="4" />
<rect x="22" y="37" width="4" height="4" />
<rect x="46" y="37" width="4" height="4" />
<rect x="54" y="37" width="4" height="4" />
<rect x="58" y="37" width="4" height="4" />
<rect x="66" y="37" width="4" height="4" />
<rect x="74" y="37" width="4" height="4" />
<rect x="86" y="37" width="4" height="4" />
<rect x="94" y="37" width="4" height="4" />
<rect x="118" y="37" width="4" height="4" />
<rect x="22" y="41" width="4" height="4" />
<rect x="26" y="41" width="4" height="4" />
<rect x="30" y="41" width="4" height="4" />
<rect x="34" y="41" width="4" height="4" />
<rect x="38" y="41" width="4" height="4" />
<rect x="42" y="41" width="4" height="4" />
<rect x="46" y="41" width="4" height="4" />
<rect x="54" y="41" width="4" height="4" />
<rect x="62" y="41" width="4" height="4" />
<rect x="70" y="41" width="4" height="4" />
<rect x="78" y="41" width="4" height="4" />
<rect x="86" y="41" width="4" height="4" />
<rect x="94" y="41" width="4" height="4" />
<rect x="98" y="41" width="4" height="4" />
<rect x="102" y="41" width="4" height="4" />
<rect x="106" y="41" width="4" height="4" />
<rect x="110" y="41" width="4" height="4" />
<rect x="114" y="41" width="4" height="4" />
<rect x="118" y="41" width="4" height="4" />
<rect x="54" y="45" width="4" height="4" />
<rect x="62" y="45" width="4" height="4" />
<rect x="70" y="45" width="4" height="4" />
<rect x="22" y="49" width="4" height="4" />
<rect x="38" y="49" width="4" height="4" />
<rect x="46" y="49" width="4" height="4" />
<rect x="50" y="49" width="4" height="4" />
<rect x="54" y="49" width="4" height="4" />
<rect x="66" y="49" width="4" height="4" />
<rect x="82" y="49" width="4" height="4" />
<rect x="90" y="49" width="4" height="4" />
<rect x="94" y="49" width="4" height="4" />
<rect x="98" y="49" width="4" height="4" />
<rect x="102" y="49" width="4" height="4" />
<rect x="106" y="49" width="4" height="4" />
<rect x="118" y="49" width="4" height="4" />
<rect x="22" y="53" width="4" height="4" />
<rect x="38" y="53" width="4" height="4" />
<rect x="54" y="53" width="4" height="4" />
<rect x="58" y="53" width="4" height="4" />
<rect x="62" y="53" width="4" height="4" />
<rect x="66" y="53" width="4" height="4" />
<rect x="78" y="53" width="4" height="4" />
<rect x="82" y="53" width="4" height="4" />
<rect x="86" y="53" width="4" height="4" />
<rect x="102" y="53" width="4" height="4" />
<rect x="106" y="53" width="4" height="4" />
<rect x="114" y="53" width="4" height="4" />
<rect x="22" y="57" width="4" height="4" />
<rect x="30" y="57" width="4" height="4" />
<rect x="34" y="57" width="4" height="4" />
<rect x="42" y="57" width="4" height="4" />
<rect x="46" y="57" width="4" height="4" />
<rect x="50" y="57" width="4" height="4" />
<rect x="70" y="57" width="4" height="4" />
<rect x="82" y="57" width="4" height="4" />
<rect x="90" y="57" width="4" height="4" />
<rect x="94" y="57" width="4" height="4" />
<rect x="106" y="57" width="4" height="4" />
<rect x="110" y="57" width="4" height="4" />
<rect x="22" y="61" width="4" height="4" />
<rect x="38" y="61" width="4" height="4" />
<rect x="50" y="61" width="4" height="4" />
<rect x="54" y="61" width="4" height="4" />
<rect x="58" y="61" width="4" height="4" />
<rect x="62" y="61" width="4" height="4" />
<rect x="70" y="61" width="4" height="4" />
<rect x="78" y="61" width="4" height="4" />
<rect x="86" y="61" width="4" height="4" />
<rect x="98" y="61" width="4" height="4" />
<rect x="110" y="61" width="4" height="4" />
<rect x="114" y="61" width="4" height="4" />
<rect x="30" y="65" width="4" height="4" />
<rect x="34" y="65" width="4" height="4" />
<rect x="38" y="65" width="4" height="4" />
<rect x="42" y="65" width="4" height="4" />
<rect x="46" y="65" width="4" height="4" />
<rect x="50" y="65" width="4" height="4" />
<rect x="54" y="65" width="4" height="4" />
<rect x="58" y="65" width="4" height="4" />
<rect x="70" y="65" width="4" height="4" />
<rect x="90" y="65" width="4" height="4" />
<rect x="94" y="65" width="4" height="4" />
<rect x="106" y="65" width="4" height="4" />
<rect x="110" y="65" width="4" height="4" />
<rect x="114" y="65" width="4" height="4" />
<rect x="118" y="65" width="4" height="4" />
<rect x="22" y="69" width="4" height="4" />
<rect x="26" y="69" width="4" height="4" />
<rect x="34" y="69" width="4" height="4" />
<rect x="38" y="69" width="4" height="4" />
<rect x="42" y="69" width="4" height="4" />
<rect x="50" y="69" width="4" height="4" />
<rect x="62" y="69" width="4" height="4" />
<rect x="74" y="69" width="4" height="4" />
<rect x="78" y="69" width="4" height="4" />
<rect x="82" y="69" width="4" height="4" />
<rect x="86" y="69" width="4" height="4" />
<rect x="102" y="69" width="4" height="4" />
<rect x="114" y="69" width="4" height="4" />
<rect x="38" y="73" width="4" height="4" />
<rect x="46" y="73" width="4" height="4" />
<rect x="58" y="73" width="4" height="4" />
<rect x="74" y="73" width="4" height="4" />
<rect x="82" y="73" width="4" height="4" />
<rect x="86" y="73" width="4" height="4" />
<rect x="98" y="73" width="4" height="4" />
<rect x="102" y="73" width="4" height="4" />
<rect x="106" y="73" width="4" height="4" />
<rect x="110" y="73" width="4" height="4" />
<rect x="42" y="77" width="4" height="4" />
<rect x="50" y="77" width="4" height="4" />
<rect x="62" y="77" width="4" height="4" />
<rect x="70" y="77" width="4" height="4" />
<rect x="78" y="77" width="4" height="4" />
<rect x="94" y="77" width="4" height="4" />
<rect x="98" y="77" width="4" height="4" />
<rect x="102" y="77" width="4" height="4" />
<rect x="110" y="77" width="4" height="4" />
<rect x="114" y="77" width="4" height="4" />
<rect x="22" y="81" width="4" height="4" />
<rect x="26" y="81" width="4" height="4" />
<rect x="30" y="81" width="4" height="4" />
<rect x="34" y="81" width="4" height="4" />
<rect x="46" y="81" width="4" height="4" />
<rect x="50" y="81" width="4" height="4" />
<rect x="54" y="81" width="4" height="4" />
<rect x="58" y="81" width="4" height="4" />
<rect x="62" y="81" width="4" height="4" />
<rect x="66" y="81" width="4" height="4" />
<rect x="82" y="81" width="4" height="4" />
<rect x="86" y="81" width="4" height="4" />
<rect x="90" y="81" width="4" height="4" />
<rect x="94" y="81" width="4" height="4" />
<rect x="98" y="81" width="4" height="4" />
<rect x="102" y="81" width="4" height="4" />
<rect x="106" y="81" width="4" height="4" />
<rect x="110" y="81" width="4" height="4" />
<rect x="54" y="85" width="4" height="4" />
<rect x="58" y="85" width="4" height="4" />
<rect x="62" y="85" width="4" height="4" />
<rect x="70" y="85" width="4" height="4" />
<rect x="78" y="85" width="4" height="4" />
<rect x="86" y="85" width="4" height="4" />
<rect x="102" y="85" width="4" height="4" />
<rect x="22" y="89" width="4" height="4" />
<rect x="26" y="89" width="4" height="4" />
<rect x="30" y="89" width="4" height="4" />
<rect x="34" y="89" width="4" height="4" />
<rect x="38" y="89" width="4" height="4" />
<rect x="42" y="89" width="4" height="4" />
<rect x="46" y="89" width="4" height="4" />
<rect x="54" y="89" width="4" height="4" />
<rect x="58" y="89" width="4" height="4" />
<rect x="66" y="89" width="4" height="4" />
<rect x="70" y="89" width="4" height="4" />
<rect x="74" y="89" width="4" height="4" />
<rect x="86" y="89" width="4" height="4" />
<rect x="94" y="89" width="4" height="4" />
<rect x="102" y="89" width="4" height="4" />
<rect x="22" y="93" width="4" height="4" />
<rect x="46" y="93" width="4" height="4" />
<rect x="58" y="93" width="4" height="4" />
<rect x="66" y="93" width="4" height="4" />
<rect x="78" y="93" width="4" height="4" />
<rect x="82" y="93" width="4" height="4" />
<rect x="86" y="93" width="4" height="4" />
<rect x="102" y="93" width="4" height="4" />
<rect x="106" y="93" width="4" height="4" />
<rect x="110" y="93" width="4" height="4" />
<rect x="118" y="93" width="4" height="4" />
<rect x="22" y="97" width="4" height="4" />
<rect x="30" y="97" width="4" height="4" />
<rect x="34" y="97" width="4" height="4" />
<rect x="38" y="97" width="4" height="4" />
<rect x="46" y="97" width="4" height="4" />
<rect x="54" y="97" width="4" height="4" />
<rect x="58" y="97" width="4" height="4" />
<rect x="62" y="97" width="4" height="4" />
<rect x="70" y="97" width="4" height="4" />
<rect x="86" y="97" width="4" height="4" />
<rect x="90" y="97" width="4" height="4" />
<rect x="94" y="97" width="4" height="4" />
<rect x="98" y="97" width="4" height="4" />
<rect x="102" y="97" width="4" height="4" />
<rect x="106" y="97" width="4" height="4" />
<rect x="110" y="97" width="4" height="4" />
<rect x="114" y="97" width="4" height="4" />
<rect x="118" y="97" width="4" height="4" />
<rect x="22" y="101" width="4" height="4" />
<rect x="30" y="101" width="4" height="4" />
<rect x="34" y="101" width="4" height="4" />
<rect x="38" y="101" width="4" height="4" />
<rect x="46" y="101" width="4" height="4" />
<rect x="58" y="101" width="4" height="4" />
<rect x="62" y="101" width="4" height="4" />
<rect x="74" y="101" width="4" height="4" />
<rect x="86" y="101" width="4" height="4" />
<rect x="90" y="101" width="4" height="4" />
<rect x="94" y="101" width="4" height="4" />
<rect x="98" y="101" width="4" height="4" />
<rect x="110" y="101" width="4" height="4" />
<rect x="114" y="101" width="4" height="4" />
<rect x="118" y="101" width="4" height="4" />
<rect x="22" y="105" width="4" height="4" />
<rect x="30" y="105" width="4" height="4" />
<rect x="34" y="105" width="4" height="4" />
<rect x="38" y="105" width="4" height="4" />
<rect x="46" y="105" width="4" height="4" />
<rect x="58" y="105" width="4" height="4" />
<rect x="62" y="105" width="4" height="4" />
<rect x="74" y="105" width="4" height="4" />
<rect x="82" y="105" width="4" height="4" />
<rect x="86" y="105" width="4" height="4" />
<rect x="90" y="105" width="4" height="4" />
<rect x="94" y="105" width="4" height="4" />
<rect x="106" y="105" width="4" height="4" />
<rect x="114" y="105" width="4" height="4" />
<rect x="22" y="109" width="4" height="4" />
<rect x="46" y="109" width="4" height="4" />
<rect x="70" y="109" width="4" height="4" />
<rect x="98" y="109" width="4" height="4" />
<rect x="102" y="109" width="4" height="4" />
<rect x="106" y="109" width="4" height="4" />
<rect x="110" y="109" width="4" height="4" />
<rect x="114" y="109" width="4" height="4" />
<rect x="22" y="113" width="4" height="4" />
<rect x="26" y="113" width="4" height="4" />
<rect x="30" y="113" width="4" height="4" />
<rect x="34" y="113" width="4" height="4" />
<rect x="38" y="113" width="4" height="4" />
<rect x="42" y="113" width="4" height="4" />
<rect x="46" y="113" width="4" height="4" />
<rect x="54" y="113" width="4" height="4" />
<rect x="58" y="113" width="4" height="4" />
<rect x="62" y="113" width="4" height="4" />
<rect x="66" y="113" width="4" height="4" />
<rect x="70" y="113" width="4" height="4" />
<rect x="74" y="113" width="4" height="4" />
<rect x="78" y="113" width="4" height="4" />
<rect x="82" y="113" width="4" height="4" />
<rect x="90" y="113" width="4" height="4" />
<rect x="94" y="113" width="4" height="4" />
<rect x="110" y="113" width="4" height="4" />
<rect x="114" y="113" width="4" height="4" />
<rect x="118" y="113" width="4" height="4" />
        </g>
      </g>
    </a>
  <rect x="153" y="0" width="259" height="144" fill="#f0f0f0" stroke="#000000" stroke-width="1" />
  <text x="282.5" y="78" text-anchor="middle" font-family="system-ui,Arial" font-size="37" fill="#111" font-weight="600" letter-spacing="6">4 8 1 9 2 7</text>
  <text x="282.5" y="118" text-anchor="middle" font-family="system-ui,Arial" font-size="20" fill="#222">tiger.com/tickr</text>
  <!-- Blue pulsing LED -->
  <rect x="412" y="0" width="36" height="144" fill="#000000">
    <animate attributeName="fill" values="#000000;#0a2d66;#1e6fff;#0a2d66;#000000" dur="6s" repeatCount="indefinite" keyTimes="0;0.25;0.5;0.75;1" />
  </rect>
  <text x="430" y="72" text-anchor="middle" font-family="system-ui,Arial" font-size="11" fill="#cfe4ff" writing-mode="tb" glyph-orientation-vertical="0" font-weight="600">LED</text>
</svg>
